<?xml version="1.0" encoding="utf-8"?>
<!-- Generator: Adobe Illustrator 24.3.0, SVG Export Plug-In . SVG Version: 6.00 Build 0)  -->
<svg version="1.1" id="Layer_1" xmlns="http://www.w3.org/2000/svg" xmlns:xlink="http://www.w3.org/1999/xlink" x="0px" y="0px"
	 viewBox="0 0 640 360" style="enable-background:new 0 0 640 360;" xml:space="preserve">
<style type="text/css">
	.st0{clip-path:url(#SVGID_2_);fill:#3563E9;}
	.st1{clip-path:url(#SVGID_2_);fill:#FFFFFF;fill-opacity:6.000000e-02;}
	.st2{clip-path:url(#SVGID_2_);fill:none;}
</style>
<g>
	<defs>
		<rect id="SVGID_1_" width="640" height="360"/>
	</defs>
	<clipPath id="SVGID_2_">
		<use xlink:href="#SVGID_1_"  style="overflow:visible;"/>
	</clipPath>
	<rect class="st0" width="640" height="360"/>
	<path class="st1" d="M-4,300l-25-60h25h25l25,60l-25,60H-4h-25L-4,300z"/>
	<path class="st1" d="M87,300l-25-60h25h25l25,60l-25,60H87H62L87,300z"/>
	<path class="st1" d="M178,300l-25-60h25h25l25,60l-25,60h-25h-25L178,300z"/>
	<path class="st1" d="M269,300l-25-60h25h25l25,60l-25,60h-25h-25L269,300z"/>
	<path class="st1" d="M360,300l-25-60h25h25l25,60l-25,60h-25h-25L360,300z"/>
	<path class="st1" d="M451,300l-25-60h25h25l25,60l-25,60h-25h-25L451,300z"/>
	<path class="st1" d="M542,300l-25-60h25h25l25,60l-25,60h-25h-25L542,300z"/>
	<path class="st1" d="M633,300l-25-60h25h25l25,60l-25,60h-25h-25L633,300z"/>
	<path class="st1" d="M41,180l-25-60h25h25l25,60l-25,60H41H16L41,180z"/>
	<path class="st1" d="M132,180l-25-60h25h25l25,60l-25,60h-25h-25L132,180z"/>
	<path class="st1" d="M223,180l-25-60h25h25l25,60l-25,60h-25h-25L223,180z"/>
	<path class="st1" d="M314,180l-25-60h25h25l25,60l-25,60h-25h-25L314,180z"/>
	<path class="st1" d="M405,180l-25-60h25h25l25,60l-25,60h-25h-25L405,180z"/>
	<path class="st1" d="M496,180l-25-60h25h25l25,60l-25,60h-25h-25L496,180z"/>
	<path class="st1" d="M587,180l-25-60h25h25l25,60l-25,60h-25h-25L587,180z"/>
	<path class="st1" d="M-5,60L-30,0h25h25l25,60l-25,60H-5h-25L-5,60z"/>
	<path class="st1" d="M86,60L61,0h25h25l25,60l-25,60H86H61L86,60z"/>
	<path class="st1" d="M177,60L152,0h25h25l25,60l-25,60h-25h-25L177,60z"/>
	<path class="st1" d="M268,60L243,0h25h25l25,60l-25,60h-25h-25L268,60z"/>
	<path class="st1" d="M359,60L334,0h25h25l25,60l-25,60h-25h-25L359,60z"/>
	<path class="st1" d="M450,60L425,0h25h25l25,60l-25,60h-25h-25L450,60z"/>
	<path class="st1" d="M541,60L516,0h25h25l25,60l-25,60h-25h-25L541,60z"/>
	<path class="st1" d="M632,60L607,0h25h25l25,60l-25,60h-25h-25L632,60z"/>
	<rect x="187" y="232" class="st2" width="340" height="108"/>
</g>
</svg>
